<svg xmlns="http://www.w3.org/2000/svg" viewBox="0 0 60 60">
  <g fill="#fff" data-name="Layer 2">
    <path d="M57 3v54H3V3h54m3-3H0v60h60V0z"/>
    <path d="M14.74 17.64l2.73-.09-.84 20.35q0 .7-.11 1.33a2.9 2.9 0 01-.34 1.1 2 2 0 01-.77.76 3 3 0 01-1.4.31v1.24h7.27V41l-2.86.15a14.46 14.46 0 00.11-1.54v-1.69q0-1.28.06-2.7t.08-2.9l.08-2.92q0-1.45.08-2.79t.08-2.52Q19 22.9 19 22v-1.67q1.12 3 2.32 5.82t2.44 5.69q1.24 2.82 2.5 5.61T28.8 43h1.13l8.57-21.12.26-.64.24-.58 1 16.22a16.29 16.29 0 010 1.9 3.92 3.92 0 01-.33 1.4 2 2 0 01-.79.88 2.9 2.9 0 01-1.41.33v1.24H46V41l-2.77.13v-1.1c0-.4 0-.83-.06-1.27l-1-17.32a8.52 8.52 0 01.07-2 3.21 3.21 0 01.47-1.28 1.9 1.9 0 01.85-.7 3 3 0 011.25-.19V16h-5.65q-1.77 4.49-3.58 8.71t-3.47 8.37l-.46 1.15q-.26.63-.51 1.3l-.51 1.3q-.25.63-.47 1.15h-.07q-1.21-2.77-2.35-5.43l-2.3-5.35-2.35-5.45L20.56 16h-5.82v1.63z"/>
  </g>
</svg>
